<svg xmlns="http://www.w3.org/2000/svg" width="220" height="220" viewBox="0 0 220 220" fill="none">
  <rect width="220" height="220" rx="24" fill="#fff" stroke="#d1d5db" stroke-width="1"/>
  <rect x="20" y="20" width="40" height="40" fill="#0f172a"/>
  <rect x="80" y="20" width="20" height="20" fill="#0f172a"/>
  <rect x="120" y="20" width="40" height="40" fill="#0f172a"/>
  <rect x="20" y="80" width="20" height="20" fill="#0f172a"/>
  <rect x="50" y="80" width="20" height="20" fill="#0f172a"/>
  <rect x="90" y="80" width="20" height="20" fill="#0f172a"/>
  <rect x="140" y="80" width="40" height="20" fill="#0f172a"/>
  <rect x="20" y="120" width="40" height="40" fill="#0f172a"/>
  <rect x="80" y="120" width="20" height="20" fill="#0f172a"/>
  <rect x="120" y="120" width="20" height="20" fill="#0f172a"/>
  <rect x="160" y="120" width="20" height="20" fill="#0f172a"/>
  <rect x="20" y="160" width="20" height="20" fill="#0f172a"/>
  <rect x="60" y="160" width="40" height="20" fill="#0f172a"/>
  <rect x="120" y="160" width="40" height="20" fill="#0f172a"/>
</svg>
